<?xml version="1.0" standalone="no"?>
<!DOCTYPE svg PUBLIC "-//W3C//DTD SVG 20010904//EN"
 "http://www.w3.org/TR/2001/REC-SVG-20010904/DTD/svg10.dtd">
<svg version="1.0" xmlns="http://www.w3.org/2000/svg"
 width="1080.000000pt" height="1080.000000pt" viewBox="0 0 1080.000000 1080.000000"
 preserveAspectRatio="xMidYMid meet">
<metadata>
Created by potrace 1.11, written by Peter Selinger 2001-2013
</metadata>
<g transform="translate(0.000000,1080.000000) scale(0.100000,-0.100000)"
fill="#000000" stroke="none">
<path d="M6497 10404 c-1 -1 -29 -5 -62 -9 -33 -3 -78 -10 -100 -15 -22 -5
-56 -11 -75 -14 -54 -9 -265 -63 -360 -93 -47 -15 -87 -28 -90 -28 -7 -1 -82
-25 -100 -32 -8 -3 -19 -7 -25 -8 -5 -2 -68 -22 -140 -45 -174 -57 -252 -99
-339 -183 -68 -67 -186 -136 -237 -140 -10 -1 -19 -5 -19 -9 0 -4 -6 -8 -12
-8 -30 0 -205 -103 -286 -167 -57 -45 -182 -172 -182 -185 0 -4 -6 -13 -13
-20 -28 -30 -86 -159 -102 -228 -2 -8 -16 -53 -30 -100 -29 -95 -40 -232 -24
-315 24 -130 96 -300 164 -390 l37 -48 -12 -56 c-6 -31 -13 -67 -16 -81 -3
-14 -7 -33 -10 -42 -3 -9 -7 -26 -9 -38 -6 -30 -47 -98 -91 -151 -74 -89 -174
-251 -262 -424 -8 -16 -24 -42 -34 -57 -11 -16 -16 -28 -11 -28 4 0 4 -4 -2
-8 -5 -4 -43 -72 -83 -152 -40 -80 -78 -152 -83 -160 -5 -8 -38 -77 -74 -152
-76 -159 -105 -207 -143 -228 -98 -56 -123 -75 -251 -198 -100 -96 -114 -105
-175 -110 -59 -5 -174 -4 -196 1 -32 7 -274 152 -308 184 -7 7 -24 16 -38 19
-13 3 -24 9 -24 13 0 4 -13 14 -29 24 -55 32 -161 155 -161 186 0 6 -4 11 -8
11 -10 0 -28 32 -158 292 -57 113 -108 226 -114 250 -6 23 -15 60 -21 81 -5
20 -12 54 -15 74 -3 20 -21 99 -41 177 -19 78 -36 148 -38 156 -2 8 -15 47
-28 85 -44 127 -82 185 -123 187 -32 3 -96 -34 -115 -66 -10 -17 -19 -26 -19
-21 -2 27 -73 -145 -86 -208 -24 -111 -7 -463 30 -622 2 -11 9 -41 15 -67 6
-26 18 -67 27 -90 9 -24 25 -68 36 -98 29 -79 31 -85 83 -190 47 -98 79 -156
124 -225 14 -22 31 -49 37 -60 11 -20 19 -33 78 -132 86 -141 355 -433 496
-537 88 -65 186 -115 302 -152 45 -15 127 -45 181 -67 88 -35 97 -42 98 -66 0
-14 2 -33 4 -41 1 -8 5 -44 9 -80 3 -36 8 -74 10 -85 13 -65 40 -154 61 -201
13 -30 24 -57 24 -59 -1 -4 12 -78 16 -95 1 -3 4 -18 8 -35 4 -16 9 -39 11
-50 2 -11 9 -32 15 -47 6 -16 7 -28 4 -28 -4 0 -2 -5 5 -12 7 -7 12 -21 12
-33 0 -12 4 -25 8 -30 5 -6 15 -26 22 -45 13 -35 80 -184 147 -330 19 -41 35
-77 35 -80 1 -3 11 -25 24 -50 42 -84 168 -485 163 -517 -1 -4 0 -10 1 -13 1
-3 3 -39 5 -80 2 -41 7 -111 11 -155 12 -136 7 -397 -11 -595 -5 -47 -15 -157
-20 -200 -4 -48 -15 -155 -21 -225 -3 -38 -8 -78 -9 -87 -2 -9 -7 -48 -10 -85
-4 -37 -9 -75 -10 -83 -2 -9 -7 -43 -11 -75 -4 -33 -8 -62 -9 -65 -1 -3 -5
-30 -9 -60 -5 -30 -10 -64 -12 -75 -3 -11 -7 -36 -10 -55 -3 -19 -9 -54 -13
-76 -9 -47 -7 -361 2 -370 3 -3 2 -16 -2 -28 -4 -11 -5 -32 -1 -46 3 -14 3
-39 -1 -57 -4 -18 -4 -34 -2 -37 3 -3 7 -78 9 -168 2 -90 6 -174 9 -188 3 -14
8 -45 11 -70 2 -25 9 -59 13 -77 5 -17 7 -34 3 -37 -8 -9 -16 -93 -16 -181 0
-99 17 -129 143 -254 71 -70 99 -91 156 -115 139 -57 227 -55 248 7 2 6 31 -6
66 -27 87 -53 133 -55 236 -10 70 31 84 34 111 25 47 -17 79 -13 107 13 29 27
83 56 103 56 7 0 23 10 34 23 28 28 22 83 -16 152 -52 94 -105 155 -179 202
-22 15 -48 37 -59 51 -34 43 -60 64 -103 83 -23 11 -52 34 -65 52 -21 30 -23
42 -25 202 -1 93 -4 262 -7 375 -5 182 -3 213 14 280 11 41 22 84 24 95 2 11
18 61 36 110 17 50 33 97 35 105 2 8 4 16 5 18 2 1 3 5 5 10 1 4 5 14 8 22 10
23 128 380 132 399 2 9 8 28 14 44 6 15 13 38 15 50 5 23 88 327 106 387 12
41 60 253 66 293 9 63 12 85 18 147 16 149 46 249 76 251 17 1 19 2 80 13 25
4 72 15 105 23 33 8 71 17 85 19 14 3 43 10 64 15 34 9 41 8 59 -10 23 -22 30
-80 16 -119 -5 -12 -11 -33 -14 -45 -2 -12 -13 -47 -24 -77 -11 -30 -47 -134
-82 -230 -52 -147 -124 -392 -144 -490 -6 -30 -9 -43 -34 -140 -56 -216 -69
-255 -127 -375 -46 -96 -51 -156 -25 -290 18 -86 19 -123 14 -270 -3 -93 -7
-242 -7 -330 -1 -139 2 -165 18 -195 10 -19 24 -45 30 -57 6 -13 14 -23 19
-23 4 0 7 -7 7 -15 0 -8 5 -15 10 -15 6 0 10 -6 10 -14 0 -8 4 -16 8 -18 4 -1
21 -29 36 -60 64 -127 190 -210 441 -291 61 -19 128 -39 150 -43 61 -12 166
-8 175 6 6 9 13 9 31 0 38 -21 119 -17 170 8 25 12 54 22 65 22 10 0 55 18 99
40 44 22 86 40 94 40 15 0 51 37 51 52 0 22 -156 211 -265 322 -44 45 -146
106 -176 106 -44 0 -169 113 -169 153 0 8 -3 17 -7 21 -24 24 -25 201 -1 322
28 145 28 144 43 212 8 34 17 77 20 95 19 111 69 243 187 496 26 57 48 105 48
106 0 2 23 52 51 112 28 59 67 142 86 183 19 41 38 82 44 90 5 8 12 22 15 30
17 42 60 126 67 131 5 3 9 10 9 15 2 23 11 44 19 44 5 0 9 7 9 15 0 8 4 23 10
33 43 79 114 276 145 402 2 8 18 123 21 150 2 14 5 75 8 135 9 171 15 268 20
290 65 304 77 438 59 665 -15 191 -8 412 22 700 7 65 20 215 30 350 4 46 11
95 16 109 5 13 8 26 5 28 -2 3 0 19 5 36 5 18 12 46 15 62 2 17 10 46 16 65
27 84 41 126 48 145 17 42 35 90 36 95 1 5 5 15 40 101 13 31 35 92 50 135 15
44 30 81 33 84 3 3 7 12 9 20 7 33 78 160 137 245 182 263 373 474 495 549 35
22 104 79 154 127 110 105 122 115 211 166 129 75 144 82 231 113 48 17 114
45 147 62 51 28 157 121 208 183 9 11 31 31 48 44 49 37 148 166 187 242 19
38 34 71 34 74 0 3 0 6 1 8 35 115 51 284 34 372 -15 77 -47 169 -64 185 -27
24 -30 37 -17 86 12 45 13 107 2 194 -13 111 -49 159 -156 207 -49 22 -79 35
-95 39 -44 11 -80 16 -144 19 -40 2 -101 13 -135 24 -77 26 -149 42 -206 46
-95 8 -170 28 -170 46 0 5 -5 9 -10 9 -19 0 -69 65 -75 98 -21 112 -84 185
-191 220 -38 13 -77 28 -86 32 -9 5 -30 12 -47 15 -16 3 -41 9 -55 14 -13 6
-50 15 -83 20 -32 6 -69 13 -83 16 -14 2 -43 9 -65 14 -152 38 -303 69 -375
77 -47 6 -289 12 -293 8z"/>
</g>
</svg>
